<mxfile host="app.diagrams.net" modified="2024-06-14T14:35:37.224Z" agent="Mozilla/5.0 (Windows NT 10.0; Win64; x64) AppleWebKit/537.36 (KHTML, like Gecko) Chrome/125.0.0.0 Safari/537.36" etag="SNoRTQk2rk4NY18QyLJw" version="24.5.2" type="github">
  <diagram name="Page-1" id="e7e014a7-5840-1c2e-5031-d8a46d1fe8dd">
    <mxGraphModel dx="1000" dy="1448" grid="1" gridSize="10" guides="1" tooltips="1" connect="1" arrows="1" fold="1" page="1" pageScale="1" pageWidth="1169" pageHeight="826" background="none" math="0" shadow="0">
      <root>
        <mxCell id="0" />
        <mxCell id="1" parent="0" />
        <mxCell id="3_WuCKe3sOz0ISbzgZ4V-41" value="Actor" style="shape=umlActor;verticalLabelPosition=bottom;verticalAlign=top;html=1;outlineConnect=0;strokeWidth=3;" parent="1" vertex="1">
          <mxGeometry x="80" y="160" width="30" height="60" as="geometry" />
        </mxCell>
        <mxCell id="3_WuCKe3sOz0ISbzgZ4V-42" value="Complaint-Controller" style="swimlane;fontStyle=1;align=center;verticalAlign=top;childLayout=stackLayout;horizontal=1;startSize=26;horizontalStack=0;resizeParent=1;resizeParentMax=0;resizeLast=0;collapsible=1;marginBottom=0;whiteSpace=wrap;html=1;" parent="1" vertex="1">
          <mxGeometry x="40" y="286" width="410" height="270" as="geometry">
            <mxRectangle x="340" y="140" width="150" height="30" as="alternateBounds" />
          </mxGeometry>
        </mxCell>
        <mxCell id="3_WuCKe3sOz0ISbzgZ4V-44" value="" style="line;strokeWidth=1;fillColor=none;align=left;verticalAlign=middle;spacingTop=-1;spacingLeft=3;spacingRight=3;rotatable=0;labelPosition=right;points=[];portConstraint=eastwest;strokeColor=inherit;" parent="3_WuCKe3sOz0ISbzgZ4V-42" vertex="1">
          <mxGeometry y="26" width="410" height="8" as="geometry" />
        </mxCell>
        <mxCell id="3_WuCKe3sOz0ISbzgZ4V-53" value="&lt;p style=&quot;margin:0px;margin-top:6px;text-align:center;&quot;&gt;&lt;font style=&quot;text-align: left; font-size: 14px;&quot; color=&quot;#b266ff&quot;&gt;&lt;b&gt;saveComplaints(req,res);&lt;/b&gt;&lt;/font&gt;&lt;/p&gt;&lt;div&gt;&lt;ol style=&quot;font-size: 14px;&quot;&gt;&lt;/ol&gt;&lt;/div&gt;&lt;hr size=&quot;1&quot; style=&quot;border-style:solid;&quot;&gt;&lt;ol style=&quot;font-size: 14px;&quot;&gt;&lt;li&gt;&lt;span style=&quot;white-space: pre;&quot;&gt;&lt;b&gt;Upload evidence to ( &quot; cloudinary &quot; ).&lt;/b&gt;&lt;/span&gt;&lt;/li&gt;&lt;li style=&quot;font-size: 13px;&quot;&gt;&lt;span style=&quot;white-space: pre;&quot;&gt;&lt;b&gt;Upload Complaint to data-base.&lt;/b&gt;&lt;/span&gt;&lt;/li&gt;&lt;li style=&quot;font-size: 13px;&quot;&gt;&lt;span style=&quot;white-space: pre;&quot;&gt;&lt;b&gt;Notify &quot; using Alert &quot; and &quot; via mail &quot; Complaint is save&lt;/b&gt;&lt;/span&gt;&lt;/li&gt;&lt;/ol&gt;&lt;div&gt;&lt;span style=&quot;font-size: 13px; white-space: pre;&quot;&gt;&lt;b&gt;+ &lt;/b&gt;&lt;/span&gt;&lt;/div&gt;" style="align=left;overflow=fill;html=1;dropTarget=0;whiteSpace=wrap;" parent="3_WuCKe3sOz0ISbzgZ4V-42" vertex="1">
          <mxGeometry y="34" width="410" height="136" as="geometry" />
        </mxCell>
        <mxCell id="3_WuCKe3sOz0ISbzgZ4V-54" value="" style="shape=component;jettyWidth=8;jettyHeight=4;" parent="3_WuCKe3sOz0ISbzgZ4V-53" vertex="1">
          <mxGeometry x="1" width="20" height="20" relative="1" as="geometry">
            <mxPoint x="-24" y="4" as="offset" />
          </mxGeometry>
        </mxCell>
        <mxCell id="3_WuCKe3sOz0ISbzgZ4V-45" value="&lt;div style=&quot;&quot;&gt;&lt;div&gt;&lt;span style=&quot;font-size: 14px;&quot;&gt;&lt;br&gt;&lt;/span&gt;&lt;/div&gt;&lt;/div&gt;" style="text;strokeColor=none;fillColor=none;align=left;verticalAlign=top;spacingLeft=4;spacingRight=4;overflow=hidden;rotatable=0;points=[[0,0.5],[1,0.5]];portConstraint=eastwest;whiteSpace=wrap;html=1;" parent="3_WuCKe3sOz0ISbzgZ4V-42" vertex="1">
          <mxGeometry y="170" width="410" height="100" as="geometry" />
        </mxCell>
        <mxCell id="3_WuCKe3sOz0ISbzgZ4V-51" style="edgeStyle=orthogonalEdgeStyle;rounded=0;orthogonalLoop=1;jettySize=auto;html=1;exitX=1;exitY=0.5;exitDx=0;exitDy=0;" parent="3_WuCKe3sOz0ISbzgZ4V-42" source="3_WuCKe3sOz0ISbzgZ4V-45" target="3_WuCKe3sOz0ISbzgZ4V-45" edge="1">
          <mxGeometry relative="1" as="geometry" />
        </mxCell>
        <mxCell id="3_WuCKe3sOz0ISbzgZ4V-52" value="&lt;div style=&quot;padding-top: 10px;&quot;&gt;&lt;span style=&quot;background-color: initial;&quot;&gt;&lt;b&gt;&lt;font style=&quot;font-size: 14px;&quot;&gt;Grievance&lt;/font&gt;&lt;/b&gt;&lt;/span&gt;&lt;/div&gt;" style="shape=datastore;whiteSpace=wrap;html=1;align=center;" parent="1" vertex="1">
          <mxGeometry x="520" y="540" width="450" height="630" as="geometry" />
        </mxCell>
        <mxCell id="3_WuCKe3sOz0ISbzgZ4V-89" style="edgeStyle=orthogonalEdgeStyle;rounded=0;orthogonalLoop=1;jettySize=auto;html=1;" parent="1" source="3_WuCKe3sOz0ISbzgZ4V-55" target="3_WuCKe3sOz0ISbzgZ4V-52" edge="1">
          <mxGeometry relative="1" as="geometry" />
        </mxCell>
        <mxCell id="3_WuCKe3sOz0ISbzgZ4V-55" value="&lt;font style=&quot;font-size: 12px;&quot;&gt;Database-connect&lt;/font&gt;" style="swimlane;fontStyle=1;align=center;verticalAlign=top;childLayout=stackLayout;horizontal=1;startSize=26;horizontalStack=0;resizeParent=1;resizeParentMax=0;resizeLast=0;collapsible=1;marginBottom=0;whiteSpace=wrap;html=1;" parent="1" vertex="1">
          <mxGeometry x="505" y="-270" width="410" height="160" as="geometry">
            <mxRectangle x="340" y="140" width="150" height="30" as="alternateBounds" />
          </mxGeometry>
        </mxCell>
        <mxCell id="3_WuCKe3sOz0ISbzgZ4V-56" value="" style="line;strokeWidth=1;fillColor=none;align=left;verticalAlign=middle;spacingTop=-1;spacingLeft=3;spacingRight=3;rotatable=0;labelPosition=right;points=[];portConstraint=eastwest;strokeColor=inherit;" parent="3_WuCKe3sOz0ISbzgZ4V-55" vertex="1">
          <mxGeometry y="26" width="410" height="8" as="geometry" />
        </mxCell>
        <mxCell id="3_WuCKe3sOz0ISbzgZ4V-57" value="&lt;p style=&quot;margin:0px;margin-top:6px;text-align:center;&quot;&gt;&lt;font style=&quot;text-align: left; font-size: 14px;&quot; color=&quot;#b266ff&quot;&gt;&lt;b&gt;Mongodb.connect(&quot;url&quot;);&lt;/b&gt;&lt;/font&gt;&lt;/p&gt;" style="align=left;overflow=fill;html=1;dropTarget=0;whiteSpace=wrap;" parent="3_WuCKe3sOz0ISbzgZ4V-55" vertex="1">
          <mxGeometry y="34" width="410" height="26" as="geometry" />
        </mxCell>
        <mxCell id="3_WuCKe3sOz0ISbzgZ4V-58" value="" style="shape=component;jettyWidth=8;jettyHeight=4;" parent="3_WuCKe3sOz0ISbzgZ4V-57" vertex="1">
          <mxGeometry x="1" width="20" height="20" relative="1" as="geometry">
            <mxPoint x="-24" y="4" as="offset" />
          </mxGeometry>
        </mxCell>
        <mxCell id="3_WuCKe3sOz0ISbzgZ4V-59" value="&lt;div style=&quot;&quot;&gt;&lt;div&gt;&lt;span style=&quot;font-size: 14px;&quot;&gt;&lt;br&gt;&lt;/span&gt;&lt;/div&gt;&lt;/div&gt;" style="text;strokeColor=none;fillColor=none;align=left;verticalAlign=top;spacingLeft=4;spacingRight=4;overflow=hidden;rotatable=0;points=[[0,0.5],[1,0.5]];portConstraint=eastwest;whiteSpace=wrap;html=1;" parent="3_WuCKe3sOz0ISbzgZ4V-55" vertex="1">
          <mxGeometry y="60" width="410" height="100" as="geometry" />
        </mxCell>
        <mxCell id="3_WuCKe3sOz0ISbzgZ4V-60" style="edgeStyle=orthogonalEdgeStyle;rounded=0;orthogonalLoop=1;jettySize=auto;html=1;exitX=1;exitY=0.5;exitDx=0;exitDy=0;" parent="3_WuCKe3sOz0ISbzgZ4V-55" source="3_WuCKe3sOz0ISbzgZ4V-59" target="3_WuCKe3sOz0ISbzgZ4V-59" edge="1">
          <mxGeometry relative="1" as="geometry" />
        </mxCell>
        <mxCell id="3_WuCKe3sOz0ISbzgZ4V-87" style="edgeStyle=orthogonalEdgeStyle;rounded=0;orthogonalLoop=1;jettySize=auto;html=1;entryX=0;entryY=0.5;entryDx=0;entryDy=0;" parent="1" source="3_WuCKe3sOz0ISbzgZ4V-66" target="3_WuCKe3sOz0ISbzgZ4V-81" edge="1">
          <mxGeometry relative="1" as="geometry" />
        </mxCell>
        <mxCell id="3_WuCKe3sOz0ISbzgZ4V-66" value="&lt;ol&gt;&lt;ol&gt;&lt;ol&gt;&lt;li style=&quot;text-align: left;&quot;&gt;&lt;font size=&quot;1&quot;&gt;&lt;b style=&quot;font-size: 14px;&quot;&gt;Collection : Complaints&lt;/b&gt;&lt;/font&gt;&lt;/li&gt;&lt;/ol&gt;&lt;/ol&gt;&lt;li style=&quot;text-align: left;&quot;&gt;&lt;span style=&quot;white-space-collapse: preserve;&quot;&gt;Categorie : xyz&lt;/span&gt;&lt;/li&gt;&lt;li style=&quot;text-align: left;&quot;&gt;&lt;span style=&quot;white-space-collapse: preserve;&quot;&gt;By :&lt;/span&gt;&lt;/li&gt;&lt;li style=&quot;text-align: left;&quot;&gt;&lt;span style=&quot;white-space-collapse: preserve;&quot;&gt;UpdateRecord : &lt;/span&gt;&lt;/li&gt;&lt;li style=&quot;text-align: left;&quot;&gt;&lt;span style=&quot;white-space-collapse: preserve;&quot;&gt;Previous Actions Taken:&lt;/span&gt;&lt;/li&gt;&lt;li style=&quot;text-align: left;&quot;&gt;&lt;span style=&quot;white-space-collapse: preserve;&quot;&gt;Assigned auth : &lt;/span&gt;&lt;/li&gt;&lt;li style=&quot;text-align: left;&quot;&gt;&lt;span style=&quot;white-space-collapse: preserve;&quot;&gt;Status : pending/done.&lt;/span&gt;&lt;/li&gt;&lt;li style=&quot;text-align: left;&quot;&gt;&lt;span style=&quot;white-space-collapse: preserve;&quot;&gt;&lt;br&gt;&lt;/span&gt;&lt;/li&gt;&lt;li style=&quot;text-align: left;&quot;&gt;&lt;span style=&quot;white-space-collapse: preserve;&quot;&gt;Grievance txt : abcdefgh....&lt;/span&gt;&lt;/li&gt;&lt;li style=&quot;text-align: left;&quot;&gt;&lt;span style=&quot;white-space-collapse: preserve;&quot;&gt;Grievance media : ...&lt;/span&gt;&lt;/li&gt;&lt;/ol&gt;&lt;div&gt;&lt;span&gt;&lt;/span&gt;&lt;/div&gt;" style="rounded=1;whiteSpace=wrap;html=1;" parent="1" vertex="1">
          <mxGeometry x="536" y="820" width="420" height="310" as="geometry" />
        </mxCell>
        <mxCell id="3_WuCKe3sOz0ISbzgZ4V-68" value="&lt;font style=&quot;font-size: 12px;&quot;&gt;Model-Complaint&lt;/font&gt;" style="swimlane;fontStyle=1;align=center;verticalAlign=top;childLayout=stackLayout;horizontal=1;startSize=26;horizontalStack=0;resizeParent=1;resizeParentMax=0;resizeLast=0;collapsible=1;marginBottom=0;whiteSpace=wrap;html=1;" parent="1" vertex="1">
          <mxGeometry x="70" y="-60" width="410" height="180" as="geometry">
            <mxRectangle x="340" y="140" width="150" height="30" as="alternateBounds" />
          </mxGeometry>
        </mxCell>
        <mxCell id="3_WuCKe3sOz0ISbzgZ4V-69" value="" style="line;strokeWidth=1;fillColor=none;align=left;verticalAlign=middle;spacingTop=-1;spacingLeft=3;spacingRight=3;rotatable=0;labelPosition=right;points=[];portConstraint=eastwest;strokeColor=inherit;" parent="3_WuCKe3sOz0ISbzgZ4V-68" vertex="1">
          <mxGeometry y="26" width="410" height="8" as="geometry" />
        </mxCell>
        <mxCell id="3_WuCKe3sOz0ISbzgZ4V-70" value="&lt;p style=&quot;margin:0px;margin-top:6px;text-align:center;&quot;&gt;&lt;font style=&quot;text-align: left; font-size: 14px;&quot; color=&quot;#b266ff&quot;&gt;&lt;b&gt;mongoose.schema({schema object});&lt;/b&gt;&lt;/font&gt;&lt;/p&gt;" style="align=left;overflow=fill;html=1;dropTarget=0;whiteSpace=wrap;" parent="3_WuCKe3sOz0ISbzgZ4V-68" vertex="1">
          <mxGeometry y="34" width="410" height="26" as="geometry" />
        </mxCell>
        <mxCell id="3_WuCKe3sOz0ISbzgZ4V-71" value="" style="shape=component;jettyWidth=8;jettyHeight=4;" parent="3_WuCKe3sOz0ISbzgZ4V-70" vertex="1">
          <mxGeometry x="1" width="20" height="20" relative="1" as="geometry">
            <mxPoint x="-24" y="4" as="offset" />
          </mxGeometry>
        </mxCell>
        <mxCell id="3_WuCKe3sOz0ISbzgZ4V-72" value="&lt;div style=&quot;&quot;&gt;&lt;div&gt;&lt;span style=&quot;font-size: 14px;&quot;&gt;&lt;br&gt;&lt;/span&gt;&lt;/div&gt;&lt;/div&gt;" style="text;strokeColor=none;fillColor=none;align=left;verticalAlign=top;spacingLeft=4;spacingRight=4;overflow=hidden;rotatable=0;points=[[0,0.5],[1,0.5]];portConstraint=eastwest;whiteSpace=wrap;html=1;" parent="3_WuCKe3sOz0ISbzgZ4V-68" vertex="1">
          <mxGeometry y="60" width="410" height="80" as="geometry" />
        </mxCell>
        <mxCell id="3_WuCKe3sOz0ISbzgZ4V-73" style="edgeStyle=orthogonalEdgeStyle;rounded=0;orthogonalLoop=1;jettySize=auto;html=1;exitX=1;exitY=0.5;exitDx=0;exitDy=0;" parent="3_WuCKe3sOz0ISbzgZ4V-68" source="3_WuCKe3sOz0ISbzgZ4V-72" target="3_WuCKe3sOz0ISbzgZ4V-72" edge="1">
          <mxGeometry relative="1" as="geometry" />
        </mxCell>
        <mxCell id="3_WuCKe3sOz0ISbzgZ4V-74" value="&lt;p style=&quot;margin: 6px 0px 0px; text-align: center;&quot;&gt;&lt;font style=&quot;text-align: left; font-size: 14px;&quot; color=&quot;#b266ff&quot;&gt;&lt;b&gt;mongoose.model(&quot;Complaint&quot;,schema):&lt;/b&gt;&lt;/font&gt;&lt;/p&gt;" style="align=left;overflow=fill;html=1;dropTarget=0;whiteSpace=wrap;" parent="3_WuCKe3sOz0ISbzgZ4V-68" vertex="1">
          <mxGeometry y="140" width="410" height="40" as="geometry" />
        </mxCell>
        <mxCell id="3_WuCKe3sOz0ISbzgZ4V-75" value="" style="shape=component;jettyWidth=8;jettyHeight=4;" parent="3_WuCKe3sOz0ISbzgZ4V-74" vertex="1">
          <mxGeometry x="1" width="20" height="20" relative="1" as="geometry">
            <mxPoint x="-24" y="4" as="offset" />
          </mxGeometry>
        </mxCell>
        <mxCell id="3_WuCKe3sOz0ISbzgZ4V-77" style="edgeStyle=orthogonalEdgeStyle;rounded=0;orthogonalLoop=1;jettySize=auto;html=1;entryX=0.5;entryY=0;entryDx=0;entryDy=0;" parent="1" source="3_WuCKe3sOz0ISbzgZ4V-74" target="3_WuCKe3sOz0ISbzgZ4V-42" edge="1">
          <mxGeometry relative="1" as="geometry" />
        </mxCell>
        <mxCell id="3_WuCKe3sOz0ISbzgZ4V-79" value="&lt;font style=&quot;font-size: 12px;&quot;&gt;Authority-Controller&lt;/font&gt;" style="swimlane;fontStyle=1;align=center;verticalAlign=top;childLayout=stackLayout;horizontal=1;startSize=26;horizontalStack=0;resizeParent=1;resizeParentMax=0;resizeLast=0;collapsible=1;marginBottom=0;whiteSpace=wrap;html=1;" parent="1" vertex="1">
          <mxGeometry x="1060" y="570" width="410" height="598" as="geometry">
            <mxRectangle x="340" y="140" width="150" height="30" as="alternateBounds" />
          </mxGeometry>
        </mxCell>
        <mxCell id="3_WuCKe3sOz0ISbzgZ4V-80" value="" style="line;strokeWidth=1;fillColor=none;align=left;verticalAlign=middle;spacingTop=-1;spacingLeft=3;spacingRight=3;rotatable=0;labelPosition=right;points=[];portConstraint=eastwest;strokeColor=inherit;" parent="3_WuCKe3sOz0ISbzgZ4V-79" vertex="1">
          <mxGeometry y="26" width="410" height="8" as="geometry" />
        </mxCell>
        <mxCell id="3_WuCKe3sOz0ISbzgZ4V-81" value="&lt;p style=&quot;text-align: left; margin: 6px 0px 0px;&quot;&gt;&lt;span style=&quot;white-space: pre; font-size: 15px;&quot;&gt;&#x9;&lt;/span&gt;&lt;font size=&quot;1&quot;&gt;&lt;b style=&quot;font-size: 19px;&quot;&gt;+ timer = 0;&lt;/b&gt;&lt;/font&gt;&lt;br&gt;&lt;/p&gt;" style="align=left;overflow=fill;html=1;dropTarget=0;whiteSpace=wrap;" parent="3_WuCKe3sOz0ISbzgZ4V-79" vertex="1">
          <mxGeometry y="34" width="410" height="96" as="geometry" />
        </mxCell>
        <mxCell id="3_WuCKe3sOz0ISbzgZ4V-82" value="" style="shape=component;jettyWidth=8;jettyHeight=4;" parent="3_WuCKe3sOz0ISbzgZ4V-81" vertex="1">
          <mxGeometry x="1" width="20" height="20" relative="1" as="geometry">
            <mxPoint x="-24" y="4" as="offset" />
          </mxGeometry>
        </mxCell>
        <mxCell id="3_WuCKe3sOz0ISbzgZ4V-84" style="edgeStyle=orthogonalEdgeStyle;rounded=0;orthogonalLoop=1;jettySize=auto;html=1;exitX=1;exitY=0.5;exitDx=0;exitDy=0;" parent="3_WuCKe3sOz0ISbzgZ4V-79" source="3_WuCKe3sOz0ISbzgZ4V-83" target="3_WuCKe3sOz0ISbzgZ4V-83" edge="1">
          <mxGeometry relative="1" as="geometry" />
        </mxCell>
        <mxCell id="IhhYe4YcLu-dkBaRPtam-1" value="&lt;p style=&quot;margin: 6px 0px 0px;&quot;&gt;&lt;font color=&quot;#b266ff&quot;&gt;&lt;span style=&quot;font-size: 14px;&quot;&gt;&lt;b&gt;&lt;span style=&quot;white-space: pre;&quot;&gt;&#x9;&lt;/span&gt;+ newComplaintNotifier();&lt;/b&gt;&lt;/span&gt;&lt;/font&gt;&lt;/p&gt;&lt;p style=&quot;margin: 6px 0px 0px;&quot;&gt;&lt;b style=&quot;font-size: 14px; color: rgb(178, 102, 255); background-color: initial;&quot;&gt;&lt;span style=&quot;white-space: pre;&quot;&gt;&#x9;&lt;/span&gt;&lt;span style=&quot;white-space: pre;&quot;&gt;&#x9;&lt;/span&gt;Complaint.watch().on( change, (change)=&amp;gt;{&lt;/b&gt;&lt;/p&gt;&lt;p style=&quot;margin: 6px 0px 0px;&quot;&gt;&lt;b style=&quot;font-size: 14px; color: rgb(178, 102, 255); background-color: initial;&quot;&gt;&lt;span style=&quot;white-space: pre;&quot;&gt;&#x9;&lt;/span&gt;&lt;span style=&quot;white-space: pre;&quot;&gt;&#x9;&lt;/span&gt;&lt;span style=&quot;white-space: pre;&quot;&gt;&#x9;&lt;/span&gt;1. notify : to All authority for new complaint&lt;/b&gt;&lt;/p&gt;&lt;p style=&quot;margin: 6px 0px 0px;&quot;&gt;&lt;b style=&quot;font-size: 14px; color: rgb(178, 102, 255); background-color: initial;&quot;&gt;&lt;span style=&quot;white-space: pre;&quot;&gt;&#x9;&lt;/span&gt;&lt;span style=&quot;white-space: pre;&quot;&gt;&#x9;&lt;/span&gt;}&lt;/b&gt;&lt;/p&gt;&lt;p style=&quot;text-align: left; margin: 6px 0px 0px;&quot;&gt;&lt;/p&gt;&lt;p style=&quot;text-align: left; margin: 6px 0px 0px;&quot;&gt;&lt;/p&gt;&lt;p style=&quot;text-align: left; margin: 6px 0px 0px;&quot;&gt;&lt;/p&gt;" style="align=left;overflow=fill;html=1;dropTarget=0;whiteSpace=wrap;" parent="3_WuCKe3sOz0ISbzgZ4V-79" vertex="1">
          <mxGeometry y="130" width="410" height="96" as="geometry" />
        </mxCell>
        <mxCell id="IhhYe4YcLu-dkBaRPtam-2" value="" style="shape=component;jettyWidth=8;jettyHeight=4;" parent="IhhYe4YcLu-dkBaRPtam-1" vertex="1">
          <mxGeometry x="1" width="20" height="20" relative="1" as="geometry">
            <mxPoint x="-24" y="4" as="offset" />
          </mxGeometry>
        </mxCell>
        <mxCell id="IhhYe4YcLu-dkBaRPtam-3" value="&lt;p style=&quot;text-align: left; margin: 6px 0px 0px;&quot;&gt;&lt;font color=&quot;#b266ff&quot;&gt;&lt;span style=&quot;font-size: 14px;&quot;&gt;&lt;b&gt;&lt;span style=&quot;white-space: pre;&quot;&gt;&#x9;&lt;/span&gt;+ put(&quot;/accepting-complaint&quot;,(req,res)=&amp;gt;{&lt;/b&gt;&lt;/span&gt;&lt;/font&gt;&lt;/p&gt;&lt;p style=&quot;text-align: left; margin: 6px 0px 0px;&quot;&gt;&lt;font color=&quot;#b266ff&quot;&gt;&lt;span style=&quot;font-size: 14px;&quot;&gt;&lt;b&gt;&lt;span style=&quot;white-space: pre;&quot;&gt;&#x9;&lt;/span&gt;&lt;span style=&quot;white-space: pre;&quot;&gt;&#x9;&lt;/span&gt;Complaint.status = Active;&lt;br&gt;&lt;/b&gt;&lt;/span&gt;&lt;/font&gt;&lt;/p&gt;&lt;p style=&quot;text-align: left; margin: 6px 0px 0px;&quot;&gt;&lt;font color=&quot;#b266ff&quot;&gt;&lt;span style=&quot;font-size: 14px;&quot;&gt;&lt;b&gt;&lt;span style=&quot;white-space: pre;&quot;&gt;&#x9;&lt;/span&gt;&lt;span style=&quot;white-space: pre;&quot;&gt;&#x9;&lt;/span&gt;Complaint.assignAuth[] = req.Auth;&lt;br&gt;&lt;/b&gt;&lt;/span&gt;&lt;/font&gt;&lt;/p&gt;&lt;p style=&quot;text-align: left; margin: 6px 0px 0px;&quot;&gt;&lt;font color=&quot;#b266ff&quot;&gt;&lt;span style=&quot;font-size: 14px;&quot;&gt;&lt;b&gt;&lt;span style=&quot;white-space: pre;&quot;&gt;&#x9;&lt;/span&gt;}&lt;/b&gt;&lt;/span&gt;&lt;/font&gt;&lt;/p&gt;&lt;p style=&quot;text-align: left; margin: 6px 0px 0px;&quot;&gt;&lt;/p&gt;&lt;p style=&quot;text-align: left; margin: 6px 0px 0px;&quot;&gt;&lt;/p&gt;&lt;p style=&quot;text-align: left; margin: 6px 0px 0px;&quot;&gt;&lt;/p&gt;" style="align=left;overflow=fill;html=1;dropTarget=0;whiteSpace=wrap;" parent="3_WuCKe3sOz0ISbzgZ4V-79" vertex="1">
          <mxGeometry y="226" width="410" height="96" as="geometry" />
        </mxCell>
        <mxCell id="IhhYe4YcLu-dkBaRPtam-4" value="" style="shape=component;jettyWidth=8;jettyHeight=4;" parent="IhhYe4YcLu-dkBaRPtam-3" vertex="1">
          <mxGeometry x="1" width="20" height="20" relative="1" as="geometry">
            <mxPoint x="-24" y="4" as="offset" />
          </mxGeometry>
        </mxCell>
        <mxCell id="jVvLArhc6-mvlLZ5V3Y2-1" value="&lt;p style=&quot;text-align: left; margin: 6px 0px 0px;&quot;&gt;&lt;font color=&quot;#b266ff&quot;&gt;&lt;span style=&quot;font-size: 14px;&quot;&gt;&lt;b&gt;&lt;span style=&quot;white-space: pre;&quot;&gt;&#x9;&lt;/span&gt;+ put(&quot;/rejecting-complaint&quot;,(req,res)=&amp;gt;{&lt;/b&gt;&lt;/span&gt;&lt;/font&gt;&lt;/p&gt;&lt;p style=&quot;text-align: left; margin: 6px 0px 0px;&quot;&gt;&lt;font color=&quot;#b266ff&quot;&gt;&lt;span style=&quot;font-size: 14px;&quot;&gt;&lt;b&gt;&lt;span style=&quot;white-space: pre;&quot;&gt;&#x9;&lt;/span&gt;&lt;span style=&quot;white-space: pre;&quot;&gt;&#x9;&lt;/span&gt;Complaint.status = Active;&lt;br&gt;&lt;/b&gt;&lt;/span&gt;&lt;/font&gt;&lt;/p&gt;&lt;p style=&quot;text-align: left; margin: 6px 0px 0px;&quot;&gt;&lt;font color=&quot;#b266ff&quot;&gt;&lt;span style=&quot;font-size: 14px;&quot;&gt;&lt;b&gt;&lt;span style=&quot;white-space: pre;&quot;&gt;&#x9;&lt;/span&gt;&lt;span style=&quot;white-space: pre;&quot;&gt;&#x9;&lt;/span&gt;Complaint.assignAuth[] = req.Auth;&lt;br&gt;&lt;/b&gt;&lt;/span&gt;&lt;/font&gt;&lt;/p&gt;&lt;p style=&quot;text-align: left; margin: 6px 0px 0px;&quot;&gt;&lt;font color=&quot;#b266ff&quot;&gt;&lt;span style=&quot;font-size: 14px;&quot;&gt;&lt;b&gt;&lt;span style=&quot;white-space: pre;&quot;&gt;&#x9;&lt;/span&gt;}&lt;/b&gt;&lt;/span&gt;&lt;/font&gt;&lt;/p&gt;&lt;p style=&quot;text-align: left; margin: 6px 0px 0px;&quot;&gt;&lt;/p&gt;&lt;p style=&quot;text-align: left; margin: 6px 0px 0px;&quot;&gt;&lt;/p&gt;&lt;p style=&quot;text-align: left; margin: 6px 0px 0px;&quot;&gt;&lt;/p&gt;" style="align=left;overflow=fill;html=1;dropTarget=0;whiteSpace=wrap;" vertex="1" parent="3_WuCKe3sOz0ISbzgZ4V-79">
          <mxGeometry y="322" width="410" height="96" as="geometry" />
        </mxCell>
        <mxCell id="jVvLArhc6-mvlLZ5V3Y2-2" value="" style="shape=component;jettyWidth=8;jettyHeight=4;" vertex="1" parent="jVvLArhc6-mvlLZ5V3Y2-1">
          <mxGeometry x="1" width="20" height="20" relative="1" as="geometry">
            <mxPoint x="-24" y="4" as="offset" />
          </mxGeometry>
        </mxCell>
        <mxCell id="3_WuCKe3sOz0ISbzgZ4V-83" value="&lt;div style=&quot;&quot;&gt;&lt;div&gt;&lt;span style=&quot;font-size: 14px;&quot;&gt;&lt;br&gt;&lt;/span&gt;&lt;/div&gt;&lt;/div&gt;" style="text;strokeColor=none;fillColor=none;align=left;verticalAlign=top;spacingLeft=4;spacingRight=4;overflow=hidden;rotatable=0;points=[[0,0.5],[1,0.5]];portConstraint=eastwest;whiteSpace=wrap;html=1;" parent="3_WuCKe3sOz0ISbzgZ4V-79" vertex="1">
          <mxGeometry y="418" width="410" height="180" as="geometry" />
        </mxCell>
        <mxCell id="3_WuCKe3sOz0ISbzgZ4V-88" style="edgeStyle=orthogonalEdgeStyle;rounded=0;orthogonalLoop=1;jettySize=auto;html=1;entryX=0;entryY=0.5;entryDx=0;entryDy=0;" parent="1" source="3_WuCKe3sOz0ISbzgZ4V-53" target="3_WuCKe3sOz0ISbzgZ4V-66" edge="1">
          <mxGeometry relative="1" as="geometry" />
        </mxCell>
        <mxCell id="4Sl2rFciPE8d8SWGaffe-1" value="Actor" style="shape=umlActor;verticalLabelPosition=bottom;verticalAlign=top;html=1;outlineConnect=0;" parent="1" vertex="1">
          <mxGeometry x="1580" y="496" width="30" height="60" as="geometry" />
        </mxCell>
        <mxCell id="jVvLArhc6-mvlLZ5V3Y2-10" style="edgeStyle=orthogonalEdgeStyle;rounded=0;orthogonalLoop=1;jettySize=auto;html=1;" edge="1" parent="1" source="uDTXcJPl0m2LFcYTbMaU-2" target="IhhYe4YcLu-dkBaRPtam-3">
          <mxGeometry relative="1" as="geometry" />
        </mxCell>
        <mxCell id="jVvLArhc6-mvlLZ5V3Y2-11" style="edgeStyle=orthogonalEdgeStyle;rounded=0;orthogonalLoop=1;jettySize=auto;html=1;entryX=1;entryY=0.75;entryDx=0;entryDy=0;" edge="1" parent="1" source="uDTXcJPl0m2LFcYTbMaU-2" target="jVvLArhc6-mvlLZ5V3Y2-1">
          <mxGeometry relative="1" as="geometry">
            <Array as="points">
              <mxPoint x="1775" y="964" />
            </Array>
          </mxGeometry>
        </mxCell>
        <mxCell id="uDTXcJPl0m2LFcYTbMaU-2" value="isAccepted" style="rhombus;whiteSpace=wrap;html=1;fontColor=#000000;fillColor=#ffffc0;strokeColor=#ff0000;" parent="1" vertex="1">
          <mxGeometry x="1690" y="804" width="90" height="80" as="geometry" />
        </mxCell>
        <mxCell id="jVvLArhc6-mvlLZ5V3Y2-12" style="edgeStyle=orthogonalEdgeStyle;rounded=0;orthogonalLoop=1;jettySize=auto;html=1;entryX=0.5;entryY=0;entryDx=0;entryDy=0;" edge="1" parent="1" source="jVvLArhc6-mvlLZ5V3Y2-4" target="uDTXcJPl0m2LFcYTbMaU-2">
          <mxGeometry relative="1" as="geometry">
            <Array as="points">
              <mxPoint x="1760" y="670" />
              <mxPoint x="1760" y="752" />
              <mxPoint x="1735" y="752" />
            </Array>
          </mxGeometry>
        </mxCell>
        <mxCell id="jVvLArhc6-mvlLZ5V3Y2-4" value="Actor" style="shape=umlActor;verticalLabelPosition=bottom;verticalAlign=top;html=1;outlineConnect=0;" vertex="1" parent="1">
          <mxGeometry x="1700" y="640" width="30" height="60" as="geometry" />
        </mxCell>
        <mxCell id="jVvLArhc6-mvlLZ5V3Y2-5" value="Actor" style="shape=umlActor;verticalLabelPosition=bottom;verticalAlign=top;html=1;outlineConnect=0;" vertex="1" parent="1">
          <mxGeometry x="1650" y="530" width="30" height="60" as="geometry" />
        </mxCell>
        <mxCell id="jVvLArhc6-mvlLZ5V3Y2-6" style="edgeStyle=orthogonalEdgeStyle;rounded=0;orthogonalLoop=1;jettySize=auto;html=1;entryX=0;entryY=1;entryDx=0;entryDy=0;entryPerimeter=0;" edge="1" parent="1" source="IhhYe4YcLu-dkBaRPtam-1" target="jVvLArhc6-mvlLZ5V3Y2-5">
          <mxGeometry relative="1" as="geometry">
            <Array as="points">
              <mxPoint x="1265" y="670" />
              <mxPoint x="1580" y="670" />
              <mxPoint x="1580" y="590" />
            </Array>
          </mxGeometry>
        </mxCell>
        <mxCell id="jVvLArhc6-mvlLZ5V3Y2-7" style="edgeStyle=orthogonalEdgeStyle;rounded=0;orthogonalLoop=1;jettySize=auto;html=1;" edge="1" parent="1" source="IhhYe4YcLu-dkBaRPtam-1" target="4Sl2rFciPE8d8SWGaffe-1">
          <mxGeometry relative="1" as="geometry">
            <Array as="points">
              <mxPoint x="1265" y="640" />
              <mxPoint x="1540" y="640" />
              <mxPoint x="1540" y="526" />
            </Array>
          </mxGeometry>
        </mxCell>
        <mxCell id="jVvLArhc6-mvlLZ5V3Y2-8" style="edgeStyle=orthogonalEdgeStyle;rounded=0;orthogonalLoop=1;jettySize=auto;html=1;entryX=0.5;entryY=0.5;entryDx=0;entryDy=0;entryPerimeter=0;" edge="1" parent="1" source="IhhYe4YcLu-dkBaRPtam-1" target="jVvLArhc6-mvlLZ5V3Y2-4">
          <mxGeometry relative="1" as="geometry" />
        </mxCell>
        <mxCell id="jVvLArhc6-mvlLZ5V3Y2-9" style="edgeStyle=orthogonalEdgeStyle;rounded=0;orthogonalLoop=1;jettySize=auto;html=1;fillColor=#f8cecc;strokeColor=#b85450;strokeWidth=3;" edge="1" parent="1" source="IhhYe4YcLu-dkBaRPtam-1" target="jVvLArhc6-mvlLZ5V3Y2-4">
          <mxGeometry relative="1" as="geometry">
            <Array as="points">
              <mxPoint x="1715" y="748" />
            </Array>
          </mxGeometry>
        </mxCell>
      </root>
    </mxGraphModel>
  </diagram>
</mxfile>
